<svg width="26" height="27" viewBox="0 0 26 27" fill="none" xmlns="http://www.w3.org/2000/svg">
<rect y="0.5" width="26" height="26" rx="13" fill="#1C1C1C"/>
<g clip-path="url(#clip0_12_1249)">
<path d="M11.4031 6.96758C10.3969 7.09883 9.32773 7.55273 8.55664 8.17617C8.34336 8.34844 7.89766 8.78867 7.72266 9.00469C7.20586 9.63086 6.80664 10.4184 6.6043 11.2113C6.46484 11.7555 6.4375 12.0426 6.4375 12.9641C6.4375 13.4234 6.44297 13.8008 6.45117 13.8008C6.45664 13.8008 6.65352 13.7324 6.88867 13.6477L7.3125 13.4918V13.1336C7.31523 11.9852 7.45195 11.2797 7.81562 10.5332C7.95508 10.2516 8.20664 9.84414 8.35977 9.6582L8.42812 9.57617L8.68789 9.82773C9.07344 10.2023 9.35781 10.3199 9.80078 10.2926C10.077 10.2762 10.2191 10.227 10.5582 10.0219C10.8125 9.86875 11.1406 9.73477 11.4687 9.65C11.6246 9.60898 11.8215 9.60352 13.0137 9.60352C14.3344 9.60352 14.3891 9.60625 14.5914 9.66367C14.9113 9.75391 15.2012 9.87695 15.4746 10.041C15.7918 10.2297 15.9148 10.2762 16.1855 10.2926C16.6312 10.3227 16.9266 10.1996 17.3148 9.825C17.4652 9.68008 17.5773 9.58984 17.591 9.60625C17.6047 9.61992 17.684 9.72656 17.766 9.84414C18.2145 10.4703 18.5043 11.1867 18.6191 11.9578C18.6465 12.1383 18.6602 12.4391 18.6602 12.8574V13.4863L19.0785 13.6367C19.3055 13.7188 19.5105 13.7898 19.527 13.7953C19.5816 13.809 19.5762 12.3188 19.5215 11.8949C19.1906 9.31367 17.1508 7.2875 14.5586 6.96758C14.2797 6.93203 11.6766 6.93477 11.4031 6.96758Z" fill="white"/>
<path d="M8.5293 13.9648C8.38438 13.9949 6.68906 14.6129 6.60703 14.6648C6.50313 14.7332 6.4375 14.8672 6.4375 15.0094C6.4375 15.1133 6.59883 15.5863 7.18672 17.1996C7.59688 18.3316 7.96602 19.3215 8.00703 19.4008C8.11367 19.6086 8.33789 19.8219 8.58672 19.9449C8.8 20.0488 8.8 20.0488 9.1418 20.0488H9.48633L9.99219 19.8629C10.5445 19.6578 10.6813 19.5895 10.8563 19.4281C11.1734 19.1355 11.3266 18.657 11.2391 18.2414C11.198 18.0418 10.077 14.9328 9.94844 14.6594C9.71602 14.1617 9.08438 13.8555 8.5293 13.9648Z" fill="white"/>
<path d="M16.9184 13.9758C16.5957 14.0578 16.2895 14.2711 16.1199 14.5336C16.0734 14.6074 15.7699 15.3949 15.4008 16.3984L14.7664 18.1348L14.7637 18.4766C14.7637 18.8156 14.7637 18.8211 14.8676 19.0344C14.9879 19.2887 15.2094 19.5184 15.4391 19.6305C15.5238 19.6715 15.8 19.7836 16.0543 19.8766L16.5137 20.0461L16.8555 20.0488C17.1945 20.0488 17.2 20.0488 17.4105 19.9477C17.6895 19.8137 17.8918 19.6141 18.0176 19.3461C18.0668 19.2367 18.4359 18.2469 18.8352 17.1477C19.6172 15.0012 19.6227 14.9793 19.5078 14.7934C19.4805 14.7441 19.4258 14.6867 19.393 14.6648C19.3574 14.6402 18.9172 14.4734 18.4168 14.293C17.591 13.9922 17.4871 13.9594 17.2848 13.9512C17.1508 13.943 17.0031 13.9539 16.9184 13.9758Z" fill="white"/>
</g>
<defs>
<clipPath id="clip0_12_1249">
<rect width="14" height="14" fill="white" transform="translate(6 6.5)"/>
</clipPath>
</defs>
</svg>
