<svg width="26" height="27" viewBox="0 0 26 27" fill="none" xmlns="http://www.w3.org/2000/svg">
<rect y="0.5" width="26" height="26" rx="13" fill="#1C1C1C"/>
<path fill-rule="evenodd" clip-rule="evenodd" d="M9.41919 8.52681C8.78121 8.59136 8.15105 8.72506 7.58753 8.91545L7.307 9.01023L7.29862 13.0913C7.294 15.3359 7.29591 17.1725 7.30284 17.1725C7.30977 17.1725 7.37096 17.1493 7.43881 17.1209C7.6931 17.0147 8.30999 16.8347 8.67662 16.7597C10.0337 16.4824 11.4801 16.6221 12.7774 17.1558C12.8324 17.1784 12.8348 16.9774 12.8269 13.093L12.8185 9.00631L12.6535 8.94456C12.3617 8.83538 11.5097 8.63106 11.1188 8.57648C10.6503 8.51106 9.81588 8.48667 9.41919 8.52681ZM15.2937 8.52922C14.6803 8.58628 14.0249 8.72407 13.4601 8.91469L13.1815 9.00872L13.1731 13.0942C13.1652 16.9777 13.1676 17.1784 13.2226 17.1552C13.2545 17.1418 13.4142 17.0833 13.5776 17.0254C15.2149 16.444 17.0357 16.4908 18.6518 17.1558C18.7066 17.1783 18.7095 16.9722 18.7095 13.0984V9.01736L18.5908 8.96776C18.387 8.88261 17.6535 8.69169 17.2739 8.62499C16.5655 8.5005 15.9319 8.46988 15.2937 8.52922ZM6.79546 9.61564C6.75008 9.63142 6.60526 9.67623 6.47368 9.71528L6.23441 9.78623V14.1064C6.23441 16.4825 6.24665 18.4266 6.26163 18.4266C6.27662 18.4266 6.39912 18.3887 6.53391 18.3425C8.48646 17.6728 10.5174 17.6749 12.5492 18.3485L13.0059 18.5L13.4567 18.3482C15.4563 17.6749 17.514 17.673 19.4661 18.3425C19.6009 18.3887 19.7234 18.4266 19.7384 18.4266C19.7534 18.4266 19.7656 16.4815 19.7656 14.1042V9.78191L19.4933 9.69996C19.3436 9.65491 19.1802 9.60828 19.1303 9.59633L19.0395 9.57462V13.5335C19.0395 17.481 19.0393 17.4924 18.972 17.5534C18.9064 17.6127 18.8997 17.6127 18.7492 17.5546C18.3317 17.3931 17.8591 17.2334 17.6129 17.1704C16.1896 16.8066 14.8063 16.9052 13.3383 17.4752L13 17.6065L12.6617 17.4759C11.8466 17.1611 11.3178 17.038 10.5 16.9726C9.50625 16.8932 8.45428 17.0813 7.25083 17.5537C7.09984 17.6129 7.09377 17.6129 7.02806 17.5534C6.96067 17.4924 6.96047 17.481 6.96047 13.537C6.96047 10.3935 6.95199 9.58231 6.91922 9.58439C6.89654 9.5858 6.84083 9.5999 6.79546 9.61564Z" fill="white"/>
</svg>
